<?xml version="1.0" encoding="UTF-8"?>
<svg width="800px" height="800px" viewBox="0 0 800 800" version="1.1" xmlns="http://www.w3.org/2000/svg">
    <g stroke="none" stroke-width="1" fill="none" fill-rule="evenodd">
        <rect fill="#111111" x="0" y="0" width="800" height="800"></rect>
        <circle stroke="#333333" stroke-width="1" cx="400" cy="400" r="200"></circle>
        <circle stroke="#333333" stroke-width="1" cx="400" cy="400" r="300"></circle>
        <circle stroke="#333333" stroke-width="1" cx="400" cy="400" r="100"></circle>
        <line x1="0" y1="400" x2="800" y2="400" stroke="#333333" stroke-width="1"></line>
        <line x1="400" y1="0" x2="400" y2="800" stroke="#333333" stroke-width="1"></line>
        <g transform="translate(100, 100)" fill="#333333">
            <circle cx="50" cy="50" r="2"></circle>
            <circle cx="150" cy="50" r="2"></circle>
            <circle cx="250" cy="50" r="2"></circle>
            <circle cx="350" cy="50" r="2"></circle>
            <circle cx="450" cy="50" r="2"></circle>
            <circle cx="550" cy="50" r="2"></circle>
            
            <circle cx="50" cy="150" r="2"></circle>
            <circle cx="150" cy="150" r="2"></circle>
            <circle cx="250" cy="150" r="2"></circle>
            <circle cx="350" cy="150" r="2"></circle>
            <circle cx="450" cy="150" r="2"></circle>
            <circle cx="550" cy="150" r="2"></circle>
            
            <circle cx="50" cy="250" r="2"></circle>
            <circle cx="150" cy="250" r="2"></circle>
            <circle cx="250" cy="250" r="2"></circle>
            <circle cx="350" cy="250" r="2"></circle>
            <circle cx="450" cy="250" r="2"></circle>
            <circle cx="550" cy="250" r="2"></circle>
            
            <circle cx="50" cy="350" r="2"></circle>
            <circle cx="150" cy="350" r="2"></circle>
            <circle cx="250" cy="350" r="2"></circle>
            <circle cx="350" cy="350" r="2"></circle>
            <circle cx="450" cy="350" r="2"></circle>
            <circle cx="550" cy="350" r="2"></circle>
            
            <circle cx="50" cy="450" r="2"></circle>
            <circle cx="150" cy="450" r="2"></circle>
            <circle cx="250" cy="450" r="2"></circle>
            <circle cx="350" cy="450" r="2"></circle>
            <circle cx="450" cy="450" r="2"></circle>
            <circle cx="550" cy="450" r="2"></circle>
            
            <circle cx="50" cy="550" r="2"></circle>
            <circle cx="150" cy="550" r="2"></circle>
            <circle cx="250" cy="550" r="2"></circle>
            <circle cx="350" cy="550" r="2"></circle>
            <circle cx="450" cy="550" r="2"></circle>
            <circle cx="550" cy="550" r="2"></circle>
        </g>
        <!-- Hexagonal pattern -->
        <polygon stroke="#444444" stroke-width="1" points="400,150 574.4,275 574.4,525 400,650 225.6,525 225.6,275"></polygon>
        <!-- Decorative accent points -->
        <circle fill="#8a2be2" opacity="0.4" cx="400" cy="150" r="4"></circle>
        <circle fill="#8a2be2" opacity="0.4" cx="574.4" cy="275" r="4"></circle>
        <circle fill="#8a2be2" opacity="0.4" cx="574.4" cy="525" r="4"></circle>
        <circle fill="#8a2be2" opacity="0.4" cx="400" cy="650" r="4"></circle>
        <circle fill="#8a2be2" opacity="0.4" cx="225.6" cy="525" r="4"></circle>
        <circle fill="#8a2be2" opacity="0.4" cx="225.6" cy="275" r="4"></circle>
    </g>
</svg>
